<svg width="172" height="93" viewBox="0 0 172 93" fill="none" xmlns="http://www.w3.org/2000/svg">
<path d="M78.469 86L97.7102 7H96.6934C101.117 7 104.4 7.17963 106.54 7.53888C110.036 8.14961 112.98 9.22738 115.37 10.7722C117.796 12.281 119.669 14.3647 120.989 17.0232C122.309 19.6457 122.969 22.5557 122.969 25.7531C122.969 30.1 121.774 33.9261 119.384 37.2312C117.029 40.5364 113.408 43.0512 108.52 44.7756C112.766 46.1767 115.941 48.2963 118.046 51.1344C120.151 53.9366 121.203 57.2237 121.203 60.9959C121.203 65.3429 119.954 69.5102 117.457 73.498C114.995 77.4857 111.713 80.5753 107.61 82.7667C103.543 84.9222 98.9945 86 93.9642 86H78.469ZM89.494 40.734H91.7701C99.3692 40.734 104.828 39.5125 108.146 37.0696C111.499 34.6266 113.176 31.07 113.176 26.3997C113.176 24.1724 112.659 22.2503 111.624 20.6337C110.589 19.0171 109.198 17.8495 107.45 17.131C105.737 16.3765 102.491 15.9993 97.7102 15.9993H95.5183L89.494 40.734ZM80.6477 77.0546H86.2046C90.9496 77.0546 94.1426 76.8929 95.7837 76.5696C99.1016 75.9948 101.795 75.0248 103.864 73.6596C105.934 72.2585 107.557 70.4263 108.734 68.163C109.911 65.8997 110.5 63.5287 110.5 61.0498C110.5 57.3495 109.341 54.5473 107.022 52.6432C104.738 50.7033 100.368 49.7333 93.9107 49.7333H87.3021L80.6477 77.0546Z" fill="#A2A2A2"/>
<path d="M9.77939 87.5867L6.92405e-06 88L-1.57194e-07 7L9.99999 7L9.77939 87.5867Z" fill="#A2A2A2"/>
<path d="M18.9571 53L12.338 46.9018L48.9386 7.17513L61.4696 6.83566L18.9571 53Z" fill="#000080"/>
<path d="M48.623 86.2226L60.969 86.0002L19.3578 40.435L12.3698 46.8731L48.623 86.2226Z" fill="#000080"/>
<path d="M74.1865 85.9984L63.469 85.9985L84.159 6.99992L94.469 6.99986L74.1865 85.9984Z" fill="#000080"/>
<path d="M164.492 52.5928L171.48 46.1547L134.879 6.42798L121.98 6.42786L164.492 52.5928Z" fill="#000080"/>
<path d="M134.879 85.7575L122.48 85.593L164.492 39.5927L171.48 46.0308L134.879 85.7575Z" fill="#000080"/>
</svg>
